<?xml version="1.0" encoding="UTF-8"?>
<svg xmlns="http://www.w3.org/2000/svg" viewBox="0 0 1500 1100" width="3000" height="2200">
  <defs>
    <style>
      text { font-family: 'Inter', 'Helvetica Neue', Arial, sans-serif; }
      .wall-ext { fill: none; stroke: #1A1A1A; stroke-width: 4; }
      .wall-int { fill: none; stroke: #1A1A1A; stroke-width: 2; }
      .wall-glass { fill: none; stroke: #87CEEB; stroke-width: 3; stroke-dasharray: 6,3; }
      .zone-name { font-size: 12px; font-weight: 700; fill: #1A1A1A; text-anchor: middle; letter-spacing: 0.5px; }
      .zone-sf { font-size: 10px; font-weight: 500; fill: #D4A574; text-anchor: middle; }
      .zone-detail { font-size: 7.5px; font-weight: 400; fill: #666; text-anchor: middle; }
      .equip-label { font-size: 6.5px; fill: #888; text-anchor: middle; }
      .equip { fill: #E0DCD6; stroke: #AAA; stroke-width: 0.75; }
      .equip-dark { fill: #D0CBC4; stroke: #999; stroke-width: 0.75; }
      .dim-line { stroke: #BBB; stroke-width: 0.5; }
      .dim-tick { stroke: #BBB; stroke-width: 0.5; }
      .dim-text { font-size: 8px; fill: #999; text-anchor: middle; }
      .title { font-size: 24px; font-weight: 700; fill: #0A0A0A; letter-spacing: 1px; }
      .subtitle { font-size: 11px; font-weight: 400; fill: #777; }
      .legend-title { font-size: 9px; font-weight: 600; fill: #333; }
      .legend-text { font-size: 8px; fill: #666; }
      .arrow-flow { fill: none; stroke: #D4A574; stroke-width: 1.5; stroke-dasharray: 5,3; marker-end: url(#arrowhead); }
      .door-swing { fill: none; stroke: #D4A574; stroke-width: 1.5; }
      .garage-door { fill: none; stroke: #D4A574; stroke-width: 3; stroke-dasharray: 8,4; }
    </style>
    <marker id="arrowhead" markerWidth="8" markerHeight="6" refX="8" refY="3" orient="auto">
      <polygon points="0 0, 8 3, 0 6" fill="#D4A574"/>
    </marker>
    <marker id="dim-end" markerWidth="6" markerHeight="6" refX="3" refY="3" orient="auto">
      <line x1="0" y1="0" x2="6" y2="6" stroke="#BBB" stroke-width="0.5"/>
      <line x1="6" y1="0" x2="0" y2="6" stroke="#BBB" stroke-width="0.5"/>
    </marker>
    <!-- Zone fill patterns -->
    <pattern id="turf-pat" width="5" height="5" patternUnits="userSpaceOnUse">
      <rect width="5" height="5" fill="#1B4332" opacity="0.12"/>
      <circle cx="2.5" cy="2.5" r="0.6" fill="#1B4332" opacity="0.2"/>
    </pattern>
  </defs>

  <!-- Background -->
  <rect width="1500" height="1100" fill="#F5F0EB"/>

  <!-- Title Block -->
  <text x="55" y="42" class="title">THE EREMOS</text>
  <text x="55" y="62" class="subtitle">FIRST FLOOR PLAN  |  Ground Level  |  15,800 SF Indoor + 2,500 SF Outdoor</text>
  <text x="55" y="78" class="subtitle" style="fill:#AAA">Liberty Park District, Memphis, TN  |  Drawing 02A  |  Rev 02  |  February 2026</text>
  <line x1="55" y1="88" x2="1445" y2="88" stroke="#D4A574" stroke-width="1.5"/>

  <!-- Scale & North Arrow -->
  <g transform="translate(1320,40)">
    <polygon points="0,-18 5,0 -5,0" fill="#1A1A1A"/>
    <text x="0" y="12" font-size="8" fill="#666" text-anchor="middle" font-weight="600">N</text>
  </g>
  <g transform="translate(1200,55)">
    <line x1="0" y1="0" x2="70" y2="0" stroke="#1A1A1A" stroke-width="1"/>
    <line x1="0" y1="-3" x2="0" y2="3" stroke="#1A1A1A" stroke-width="1"/>
    <line x1="70" y1="-3" x2="70" y2="3" stroke="#1A1A1A" stroke-width="1"/>
    <text x="35" y="12" font-size="7" fill="#888" text-anchor="middle">10'-0"</text>
  </g>

  <!-- ======= BUILDING - translate for padding ======= -->
  <!-- Building: ~150' x 107' = 1050px x 750px at 7px/ft -->
  <g transform="translate(70, 110)">

    <!-- ====== EXTERIOR WALLS ====== -->
    <rect x="0" y="0" width="1050" height="750" class="wall-ext" fill="none"/>

    <!-- ====== ZONE FILLS ====== -->
    <!-- Reception -->
    <rect x="2" y="2" width="198" height="148" fill="#E8D5B7" opacity="0.15"/>
    <!-- Free Weights -->
    <rect x="200" y="2" width="530" height="380" fill="#D4A574" opacity="0.06"/>
    <!-- Plate-Loaded -->
    <rect x="200" y="382" width="370" height="218" fill="#D4A574" opacity="0.10"/>
    <!-- Selectorized -->
    <rect x="570" y="382" width="160" height="118" fill="#D4A574" opacity="0.08"/>
    <!-- Cardio -->
    <rect x="570" y="500" width="260" height="100" fill="#D4A574" opacity="0.06"/>
    <!-- Turf Lane -->
    <rect x="830" y="2" width="218" height="598" fill="url(#turf-pat)"/>
    <!-- Recovery -->
    <rect x="570" y="600" width="260" height="148" fill="#87CEEB" opacity="0.08"/>
    <!-- Women's Locker -->
    <rect x="2" y="150" width="198" height="290" fill="#E8D5B7" opacity="0.08"/>
    <!-- Men's Locker -->
    <rect x="2" y="440" width="198" height="308" fill="#E8D5B7" opacity="0.08"/>
    <!-- Restrooms -->
    <rect x="730" y="2" width="100" height="130" fill="#C4B5A0" opacity="0.10"/>
    <!-- Mechanical -->
    <rect x="200" y="600" width="190" height="148" fill="#AAA" opacity="0.08"/>
    <!-- Stairs + Elevator -->
    <rect x="730" y="132" width="100" height="120" fill="#DDD" opacity="0.12"/>

    <!-- ====== INTERIOR WALLS ====== -->
    <!-- Reception south wall -->
    <line x1="0" y1="150" x2="200" y2="150" class="wall-int"/>
    <!-- Reception east wall -->
    <line x1="200" y1="0" x2="200" y2="750" class="wall-int"/>
    <!-- Free Weights south boundary -->
    <line x1="200" y1="382" x2="730" y2="382" class="wall-int" stroke-dasharray="4,4" stroke="#CCC"/>
    <!-- Plate-Loaded / Selectorized divider -->
    <line x1="570" y1="382" x2="570" y2="600" class="wall-int" stroke-dasharray="4,4" stroke="#CCC"/>
    <!-- Selectorized / Cardio divider -->
    <line x1="570" y1="500" x2="830" y2="500" class="wall-int" stroke-dasharray="4,4" stroke="#CCC"/>
    <!-- Cardio / Recovery divider -->
    <line x1="570" y1="600" x2="830" y2="600" class="wall-int"/>
    <!-- Recovery west wall -->
    <line x1="570" y1="600" x2="570" y2="750" class="wall-int"/>
    <!-- Mechanical north wall -->
    <line x1="200" y1="600" x2="570" y2="600" class="wall-int"/>
    <!-- Mechanical / Men's Locker divider -->
    <line x1="390" y1="600" x2="390" y2="750" class="wall-int"/>
    <!-- Turf lane west wall -->
    <line x1="830" y1="0" x2="830" y2="750" class="wall-int"/>
    <!-- Women's / Men's locker divider -->
    <line x1="0" y1="440" x2="200" y2="440" class="wall-int"/>
    <!-- Restroom south wall -->
    <line x1="730" y1="130" x2="830" y2="130" class="wall-int"/>
    <!-- Stairs south wall -->
    <line x1="730" y1="252" x2="830" y2="252" class="wall-int"/>
    <!-- Stairs west wall -->
    <line x1="730" y1="0" x2="730" y2="382" class="wall-int"/>

    <!-- ====== GLASS STOREFRONT (Front) ====== -->
    <line x1="10" y1="0" x2="190" y2="0" class="wall-glass"/>

    <!-- Main Entrance Door -->
    <rect x="70" y="-5" width="60" height="10" fill="#D4A574" rx="2" opacity="0.6"/>
    <text x="100" y="-12" font-size="7" fill="#D4A574" text-anchor="middle" font-weight="600">MAIN ENTRANCE</text>

    <!-- Glass partition - Recovery to training -->
    <line x1="570" y1="605" x2="570" y2="745" class="wall-glass"/>

    <!-- ====== DOORS ====== -->
    <!-- Door: Reception to Training -->
    <rect x="196" y="60" width="8" height="30" fill="#D4A574" opacity="0.4"/>
    <!-- Door: Locker rooms to training -->
    <rect x="196" y="250" width="8" height="30" fill="#D4A574" opacity="0.4"/>
    <rect x="196" y="520" width="8" height="30" fill="#D4A574" opacity="0.4"/>
    <!-- Emergency exits -->
    <rect x="-4" y="300" width="8" height="30" fill="#cc4444" opacity="0.4"/>
    <text x="-16" y="320" font-size="6" fill="#cc4444" text-anchor="middle" transform="rotate(-90,-16,320)">EXIT</text>
    <rect x="-4" y="580" width="8" height="30" fill="#cc4444" opacity="0.4"/>
    <text x="-16" y="600" font-size="6" fill="#cc4444" text-anchor="middle" transform="rotate(-90,-16,600)">EXIT</text>
    <rect x="1046" y="300" width="8" height="30" fill="#cc4444" opacity="0.4"/>

    <!-- ====== GARAGE DOOR (Turf to Outdoor) ====== -->
    <line x1="860" y1="750" x2="1020" y2="750" class="garage-door"/>
    <text x="940" y="766" font-size="7" fill="#D4A574" text-anchor="middle">ROLL-UP GARAGE DOOR</text>

    <!-- ====== OUTDOOR TRAINING AREA ====== -->
    <rect x="830" y="750" width="220" height="200" fill="url(#turf-pat)" stroke="#1A1A1A" stroke-width="2" stroke-dasharray="8,4"/>
    <!-- Fence -->
    <line x1="830" y1="950" x2="1050" y2="950" stroke="#333" stroke-width="2"/>
    <line x1="830" y1="750" x2="830" y2="950" stroke="#333" stroke-width="2"/>
    <line x1="1050" y1="750" x2="1050" y2="950" stroke="#333" stroke-width="2"/>
    <!-- Outdoor equipment symbols -->
    <rect x="870" y="780" width="60" height="40" class="equip" rx="2"/>
    <text x="900" y="805" class="equip-label">FUNC. RIG</text>
    <rect x="950" y="780" width="80" height="15" class="equip" rx="1"/>
    <text x="990" y="792" class="equip-label">FARMER'S WALK</text>
    <rect x="870" y="840" width="40" height="30" class="equip" rx="2"/>
    <text x="890" y="860" class="equip-label">TIRES</text>
    <rect x="930" y="840" width="80" height="15" class="equip" rx="1"/>
    <text x="970" y="852" class="equip-label">SLED TRACK</text>
    <!-- Outdoor label -->
    <text x="940" y="910" class="zone-name">OUTDOOR TRAINING</text>
    <text x="940" y="924" class="zone-sf">2,500 SF</text>
    <text x="940" y="936" class="zone-detail">Powder-coated steel fence  |  Evening lighting</text>

    <!-- ====== ZONE LABELS ====== -->

    <!-- RECEPTION -->
    <text x="100" y="60" class="zone-name">RECEPTION</text>
    <text x="100" y="74" class="zone-sf">800 SF</text>
    <!-- Reception equipment -->
    <rect x="60" y="35" width="80" height="16" class="equip-dark" rx="2"/>
    <text x="100" y="47" class="equip-label" fill="white">FRONT DESK</text>
    <rect x="20" y="95" width="40" height="25" class="equip" rx="2"/>
    <text x="40" y="112" class="equip-label">RETAIL</text>
    <rect x="130" y="95" width="50" height="25" class="equip" rx="2"/>
    <text x="155" y="112" class="equip-label">PR BOARD</text>
    <rect x="75" y="95" width="45" height="25" class="equip" rx="2"/>
    <text x="97" y="112" class="equip-label">GUEST</text>

    <!-- FREE WEIGHT TRAINING ZONE -->
    <text x="465" y="50" class="zone-name" style="font-size:14px">FREE WEIGHT TRAINING</text>
    <text x="465" y="66" class="zone-sf" style="font-size:11px">4,500 SF</text>
    <text x="465" y="80" class="zone-detail">14+ ft ceilings  |  Exposed steel beams  |  Copper pendant lights</text>
    <!-- Squat Racks - 2 rows of 5-6 -->
    <g>
      <!-- Row 1 (left row) -->
      <rect x="230" y="100" width="28" height="38" class="equip-dark" rx="1"/>
      <rect x="268" y="100" width="28" height="38" class="equip-dark" rx="1"/>
      <rect x="306" y="100" width="28" height="38" class="equip-dark" rx="1"/>
      <rect x="344" y="100" width="28" height="38" class="equip-dark" rx="1"/>
      <rect x="382" y="100" width="28" height="38" class="equip-dark" rx="1"/>
      <rect x="420" y="100" width="28" height="38" class="equip-dark" rx="1"/>
      <text x="330" y="155" class="equip-label">6 ROGUE SQUAT RACKS (ROW 1)</text>
      <!-- Row 2 (right row) -->
      <rect x="230" y="170" width="28" height="38" class="equip-dark" rx="1"/>
      <rect x="268" y="170" width="28" height="38" class="equip-dark" rx="1"/>
      <rect x="306" y="170" width="28" height="38" class="equip-dark" rx="1"/>
      <rect x="344" y="170" width="28" height="38" class="equip-dark" rx="1"/>
      <rect x="382" y="170" width="28" height="38" class="equip-dark" rx="1"/>
      <rect x="420" y="170" width="28" height="38" class="equip-dark" rx="1"/>
      <text x="330" y="225" class="equip-label">6 ROGUE SQUAT RACKS (ROW 2)</text>
    </g>
    <!-- Olympic Platforms -->
    <rect x="480" y="100" width="50" height="50" class="equip" rx="2"/>
    <rect x="540" y="100" width="50" height="50" class="equip" rx="2"/>
    <rect x="480" y="165" width="50" height="50" class="equip" rx="2"/>
    <rect x="540" y="165" width="50" height="50" class="equip" rx="2"/>
    <text x="530" y="235" class="equip-label">4 OLYMPIC PLATFORMS (ELEIKO)</text>
    <!-- Dumbbell Wall -->
    <rect x="615" y="95" width="105" height="20" class="equip-dark" rx="1"/>
    <text x="667" y="108" class="equip-label" fill="white">DUMBBELL WALL 5-150 LB</text>
    <!-- Specialty Bar Wall -->
    <rect x="615" y="125" width="105" height="15" class="equip" rx="1"/>
    <text x="667" y="136" class="equip-label">SPECIALTY BARS (SSB, TRAP, CAMBERED, BUFFALO)</text>
    <!-- Benches -->
    <rect x="230" y="250" width="22" height="35" class="equip" rx="1"/>
    <rect x="262" y="250" width="22" height="35" class="equip" rx="1"/>
    <rect x="294" y="250" width="22" height="35" class="equip" rx="1"/>
    <rect x="326" y="250" width="22" height="35" class="equip" rx="1"/>
    <rect x="358" y="250" width="22" height="35" class="equip" rx="1"/>
    <rect x="390" y="250" width="22" height="35" class="equip" rx="1"/>
    <text x="315" y="302" class="equip-label">6 COMPETITION BENCHES (FLAT / INCLINE / DECLINE)</text>
    <!-- Chalk stations -->
    <circle cx="460" cy="270" r="6" class="equip"/>
    <circle cx="480" cy="270" r="6" class="equip"/>
    <circle cx="500" cy="270" r="6" class="equip"/>
    <text x="480" y="290" class="equip-label">CHALK STATIONS</text>
    <!-- Plate trees -->
    <rect x="615" y="160" width="10" height="50" class="equip" rx="1"/>
    <rect x="632" y="160" width="10" height="50" class="equip" rx="1"/>
    <rect x="649" y="160" width="10" height="50" class="equip" rx="1"/>
    <rect x="666" y="160" width="10" height="50" class="equip" rx="1"/>
    <text x="650" y="225" class="equip-label">PLATE STORAGE</text>
    <!-- Zone flow notation -->
    <text x="465" y="360" class="zone-detail" style="fill:#D4A574; font-weight:600">OPEN SIGHTLINE TO PLATE-LOADED ZONE ↓</text>

    <!-- PLATE-LOADED MACHINE ZONE -->
    <text x="385" y="415" class="zone-name" style="font-size:13px">PLATE-LOADED MACHINES</text>
    <text x="385" y="430" class="zone-sf">2,500 SF</text>
    <text x="385" y="442" class="zone-detail">5-ft aisles between machines  |  Plate storage at each station</text>
    <!-- Machines - Row 1 -->
    <rect x="220" y="455" width="40" height="30" class="equip-dark" rx="2"/>
    <text x="240" y="474" class="equip-label" style="font-size:5.5px" fill="white">LEG PRESS</text>
    <rect x="270" y="455" width="40" height="30" class="equip-dark" rx="2"/>
    <text x="290" y="474" class="equip-label" style="font-size:5.5px" fill="white">HACK SQT</text>
    <rect x="320" y="455" width="40" height="30" class="equip-dark" rx="2"/>
    <text x="340" y="474" class="equip-label" style="font-size:5.5px" fill="white">PEND SQT</text>
    <rect x="370" y="455" width="40" height="30" class="equip-dark" rx="2"/>
    <text x="390" y="474" class="equip-label" style="font-size:5.5px" fill="white">LAT PULL</text>
    <rect x="420" y="455" width="40" height="30" class="equip-dark" rx="2"/>
    <text x="440" y="474" class="equip-label" style="font-size:5.5px" fill="white">SEAT ROW</text>
    <rect x="470" y="455" width="40" height="30" class="equip-dark" rx="2"/>
    <text x="490" y="474" class="equip-label" style="font-size:5.5px" fill="white">INC PRSS</text>
    <text x="350" y="500" class="equip-label">ARSENAL  |  PRIME FITNESS  |  HAMMER STRENGTH</text>
    <!-- Machines - Row 2 -->
    <rect x="220" y="515" width="40" height="30" class="equip-dark" rx="2"/>
    <text x="240" y="534" class="equip-label" style="font-size:5.5px" fill="white">DEC PRSS</text>
    <rect x="270" y="515" width="40" height="30" class="equip-dark" rx="2"/>
    <text x="290" y="534" class="equip-label" style="font-size:5.5px" fill="white">CS ROW</text>
    <rect x="320" y="515" width="40" height="30" class="equip-dark" rx="2"/>
    <text x="340" y="534" class="equip-label" style="font-size:5.5px" fill="white">REV HYP</text>
    <rect x="370" y="515" width="40" height="30" class="equip-dark" rx="2"/>
    <text x="390" y="534" class="equip-label" style="font-size:5.5px" fill="white">GHR</text>
    <rect x="420" y="515" width="40" height="30" class="equip-dark" rx="2"/>
    <text x="440" y="534" class="equip-label" style="font-size:5.5px" fill="white">BELT SQT</text>
    <rect x="470" y="515" width="40" height="30" class="equip-dark" rx="2"/>
    <text x="490" y="534" class="equip-label" style="font-size:5.5px" fill="white">T-BAR</text>
    <text x="350" y="560" class="equip-label">ELITEFIT  |  ROGUE  |  HIP THRUST  |  CALF RAISE</text>

    <!-- SELECTORIZED MACHINES AND CABLES -->
    <text x="650" y="415" class="zone-name">SELECTORIZED</text>
    <text x="650" y="428" class="zone-name">&amp; CABLES</text>
    <text x="650" y="442" class="zone-sf">1,000 SF</text>
    <!-- Equipment -->
    <rect x="585" y="455" width="35" height="25" class="equip" rx="2"/>
    <text x="602" y="472" class="equip-label" style="font-size:5px">FUNC TR</text>
    <rect x="625" y="455" width="35" height="25" class="equip" rx="2"/>
    <text x="642" y="472" class="equip-label" style="font-size:5px">FUNC TR</text>
    <rect x="665" y="455" width="50" height="25" class="equip" rx="2"/>
    <text x="690" y="472" class="equip-label" style="font-size:5px">CROSSOVER</text>
    <rect x="585" y="485" width="60" height="10" class="equip" rx="1"/>
    <text x="615" y="493" class="equip-label" style="font-size:5px">PEC/DELT</text>
    <rect x="655" y="485" width="60" height="10" class="equip" rx="1"/>
    <text x="685" y="493" class="equip-label" style="font-size:5px">LEG EXT/CURL</text>
    <text x="650" y="498" class="zone-detail" style="font-size:6px">Life Fitness Signature / Hammer Strength Select</text>

    <!-- CARDIO CONDITIONING -->
    <text x="700" y="530" class="zone-name">CARDIO CONDITIONING</text>
    <text x="700" y="544" class="zone-sf">1,200 SF</text>
    <text x="700" y="555" class="zone-detail">No TVs on machines  |  Near outdoor entrance</text>
    <!-- Cardio equipment -->
    <rect x="585" y="565" width="18" height="14" class="equip" rx="1"/>
    <rect x="608" y="565" width="18" height="14" class="equip" rx="1"/>
    <rect x="631" y="565" width="18" height="14" class="equip" rx="1"/>
    <rect x="654" y="565" width="18" height="14" class="equip" rx="1"/>
    <text x="630" y="592" class="equip-label">4 ASSAULT / ECHO BIKES</text>
    <rect x="690" y="565" width="22" height="10" class="equip" rx="1"/>
    <rect x="717" y="565" width="22" height="10" class="equip" rx="1"/>
    <rect x="744" y="565" width="22" height="10" class="equip" rx="1"/>
    <rect x="771" y="565" width="22" height="10" class="equip" rx="1"/>
    <text x="740" y="588" class="equip-label">4 CONCEPT2 ROWERS</text>
    <rect x="690" y="578" width="15" height="12" class="equip" rx="1"/>
    <rect x="710" y="578" width="15" height="12" class="equip" rx="1"/>
    <text x="707" y="598" class="equip-label" style="font-size:5.5px">SKI ERG</text>
    <rect x="740" y="578" width="25" height="12" class="equip" rx="1"/>
    <rect x="770" y="578" width="25" height="12" class="equip" rx="1"/>
    <text x="767" y="598" class="equip-label" style="font-size:5.5px">CURVED TREAD</text>
    <rect x="800" y="565" width="15" height="12" class="equip" rx="1"/>
    <rect x="800" y="580" width="15" height="12" class="equip" rx="1"/>
    <text x="807" y="598" class="equip-label" style="font-size:5px">SM/VC</text>

    <!-- INDOOR TURF / SPRINT LANE -->
    <text x="939" y="290" class="zone-name" style="writing-mode:tb; font-size:11px">INDOOR TURF</text>
    <text x="955" y="260" class="zone-sf" style="writing-mode:tb; font-size:9px">800 SF</text>
    <!-- Lane markings -->
    <line x1="870" y1="30" x2="870" y2="720" stroke="#1B4332" stroke-width="0.5" stroke-dasharray="3,6"/>
    <line x1="1010" y1="30" x2="1010" y2="720" stroke="#1B4332" stroke-width="0.5" stroke-dasharray="3,6"/>
    <!-- Center line -->
    <line x1="940" y1="30" x2="940" y2="720" stroke="#1B4332" stroke-width="0.3" stroke-dasharray="2,8"/>
    <text x="940" y="16" class="equip-label" style="fill:#1B4332; font-size:6px">40-YARD SPRINT LANE</text>
    <text x="940" y="738" class="zone-detail" style="fill:#1B4332">SLED PUSH  |  PROWLER  |  SPRINT DRILLS</text>
    <!-- Arrow: turf → outdoor via garage door -->
    <path d="M940,742 L940,758" stroke="#D4A574" stroke-width="1.5" fill="none" marker-end="url(#arrowhead)"/>

    <!-- ====== RECOVERY SUITE ====== -->
    <text x="700" y="628" class="zone-name" style="font-size:13px">RECOVERY SUITE</text>
    <text x="700" y="642" class="zone-sf">1,500 SF</text>
    <text x="700" y="654" class="zone-detail">Stone/tile flooring  |  Spa lighting  |  Glass partition to training floor</text>
    <!-- 2 Cold Plunges -->
    <rect x="590" y="668" width="50" height="30" rx="4" fill="#87CEEB" opacity="0.15" stroke="#5BA3C0" stroke-width="1"/>
    <text x="615" y="687" class="equip-label" style="fill:#5BA3C0; font-size:5.5px">PLUNGE 1</text>
    <rect x="650" y="668" width="50" height="30" rx="4" fill="#87CEEB" opacity="0.15" stroke="#5BA3C0" stroke-width="1"/>
    <text x="675" y="687" class="equip-label" style="fill:#5BA3C0; font-size:5.5px">PLUNGE 2</text>
    <text x="645" y="710" class="equip-label">2 COLD PLUNGE TUBS (38-42°F)</text>
    <!-- Infrared Sauna -->
    <rect x="720" y="665" width="50" height="38" rx="3" fill="#E8A040" opacity="0.08" stroke="#D4A574" stroke-width="1"/>
    <text x="745" y="683" class="equip-label" style="fill:#D4A574; font-size:5.5px">IR SAUNA</text>
    <text x="745" y="694" class="equip-label" style="font-size:5px">(4-PERSON)</text>
    <!-- 4 Normatec Boots -->
    <rect x="785" y="668" width="10" height="16" class="equip" rx="1"/>
    <rect x="798" y="668" width="10" height="16" class="equip" rx="1"/>
    <rect x="785" y="690" width="10" height="16" class="equip" rx="1"/>
    <rect x="798" y="690" width="10" height="16" class="equip" rx="1"/>
    <text x="793" y="720" class="equip-label" style="font-size:5.5px">4 NORMATEC</text>
    <!-- Percussion Station -->
    <rect x="815" y="675" width="10" height="10" class="equip" rx="5"/>
    <text x="820" y="700" class="equip-label" style="font-size:5px">PERC</text>

    <!-- ====== WOMEN'S LOCKER ROOM ====== -->
    <text x="100" y="210" class="zone-name">WOMEN'S</text>
    <text x="100" y="224" class="zone-name">LOCKER ROOM</text>
    <text x="100" y="238" class="zone-sf">1,250 SF</text>
    <text x="100" y="250" class="zone-detail">Walnut lockers  |  Rainfall showers  |  Heated stone floor</text>
    <!-- Lockers along west wall -->
    <rect x="8" y="260" width="14" height="80" class="equip-dark" rx="1"/>
    <text x="15" y="305" class="equip-label" style="font-size:5px; writing-mode:tb">LOCKERS</text>
    <!-- 6 Showers -->
    <rect x="30" y="340" width="70" height="50" class="equip" rx="2" fill="#87CEEB" opacity="0.06"/>
    <text x="65" y="370" class="equip-label">6 RAINFALL SHOWERS</text>
    <!-- Grooming Counter -->
    <rect x="110" y="260" width="75" height="14" class="equip" rx="1"/>
    <text x="147" y="270" class="equip-label" style="font-size:5.5px">GROOMING COUNTER</text>
    <!-- Founder Lockers -->
    <rect x="110" y="285" width="75" height="35" class="equip-dark" rx="2"/>
    <text x="147" y="306" class="equip-label" style="font-size:5.5px" fill="white">FOUNDER LOCKERS</text>
    <!-- ADA / Family Changing -->
    <rect x="110" y="340" width="55" height="45" class="equip" rx="2"/>
    <text x="137" y="366" class="equip-label" style="font-size:5.5px">ADA / FAMILY</text>

    <!-- ====== MEN'S LOCKER ROOM ====== -->
    <text x="100" y="500" class="zone-name">MEN'S</text>
    <text x="100" y="514" class="zone-name">LOCKER ROOM</text>
    <text x="100" y="528" class="zone-sf">1,250 SF</text>
    <text x="100" y="540" class="zone-detail">Walnut lockers  |  Rainfall showers  |  Heated stone floor</text>
    <!-- Lockers along west wall -->
    <rect x="8" y="555" width="14" height="80" class="equip-dark" rx="1"/>
    <text x="15" y="600" class="equip-label" style="font-size:5px; writing-mode:tb">LOCKERS</text>
    <!-- 6 Showers -->
    <rect x="30" y="635" width="70" height="50" class="equip" rx="2" fill="#87CEEB" opacity="0.06"/>
    <text x="65" y="665" class="equip-label">6 RAINFALL SHOWERS</text>
    <!-- Grooming Counter -->
    <rect x="110" y="555" width="75" height="14" class="equip" rx="1"/>
    <text x="147" y="565" class="equip-label" style="font-size:5.5px">GROOMING COUNTER</text>
    <!-- Founder Lockers -->
    <rect x="110" y="580" width="75" height="35" class="equip-dark" rx="2"/>
    <text x="147" y="601" class="equip-label" style="font-size:5.5px" fill="white">FOUNDER LOCKERS</text>
    <!-- ADA / Family Changing -->
    <rect x="110" y="635" width="55" height="45" class="equip" rx="2"/>
    <text x="137" y="661" class="equip-label" style="font-size:5.5px">ADA / FAMILY</text>

    <!-- ====== RESTROOMS ====== -->
    <text x="780" y="50" class="zone-name" style="font-size:10px">RESTROOMS</text>
    <text x="780" y="64" class="zone-sf">400 SF</text>
    <text x="780" y="76" class="zone-detail">ADA Compliant</text>
    <rect x="740" y="85" width="38" height="30" class="equip" rx="2"/>
    <text x="759" y="104" class="equip-label">M</text>
    <rect x="784" y="85" width="38" height="30" class="equip" rx="2"/>
    <text x="803" y="104" class="equip-label">W</text>

    <!-- ====== MECHANICAL / STORAGE ====== -->
    <text x="295" y="650" class="zone-name" style="font-size:11px">MECHANICAL /</text>
    <text x="295" y="664" class="zone-name" style="font-size:11px">STORAGE</text>
    <text x="295" y="678" class="zone-sf">600 SF</text>
    <text x="295" y="690" class="zone-detail">HVAC  |  Electrical  |  Hot water  |  Cleaning supplies</text>
    <rect x="220" y="700" width="55" height="28" class="equip" rx="2"/>
    <text x="247" y="718" class="equip-label" style="font-size:5.5px">HVAC</text>
    <rect x="282" y="700" width="40" height="28" class="equip" rx="2"/>
    <text x="302" y="718" class="equip-label" style="font-size:5.5px">ELEC</text>
    <rect x="330" y="700" width="40" height="28" class="equip" rx="2"/>
    <text x="350" y="718" class="equip-label" style="font-size:5.5px">H.W.</text>

    <!-- ====== STAIRCASE + ELEVATOR ====== -->
    <text x="780" y="155" class="zone-name" style="font-size:10px">STAIRCASE</text>
    <!-- Stair treads -->
    <line x1="740" y1="145" x2="820" y2="145" stroke="#AAA" stroke-width="0.5"/>
    <line x1="740" y1="155" x2="820" y2="155" stroke="#AAA" stroke-width="0.5"/>
    <line x1="740" y1="165" x2="820" y2="165" stroke="#AAA" stroke-width="0.5"/>
    <line x1="740" y1="175" x2="820" y2="175" stroke="#AAA" stroke-width="0.5"/>
    <line x1="740" y1="185" x2="820" y2="185" stroke="#AAA" stroke-width="0.5"/>
    <line x1="740" y1="195" x2="820" y2="195" stroke="#AAA" stroke-width="0.5"/>
    <line x1="740" y1="205" x2="820" y2="205" stroke="#AAA" stroke-width="0.5"/>
    <line x1="740" y1="215" x2="820" y2="215" stroke="#AAA" stroke-width="0.5"/>
    <line x1="740" y1="225" x2="820" y2="225" stroke="#AAA" stroke-width="0.5"/>
    <text x="780" y="244" class="equip-label">UP TO 2ND FL</text>
    <!-- Stair direction arrow -->
    <line x1="780" y1="237" x2="780" y2="140" stroke="#D4A574" stroke-width="1" marker-end="url(#arrowhead)"/>
    <!-- Elevator -->
    <rect x="740" y="258" width="45" height="45" stroke="#1A1A1A" stroke-width="1.5" fill="#DDD" opacity="0.3" rx="2"/>
    <text x="762" y="282" class="equip-label" style="font-size:7px">ELEV.</text>
    <line x1="752" y1="290" x2="762" y2="296" stroke="#888" stroke-width="0.75"/>
    <line x1="762" y1="296" x2="772" y2="290" stroke="#888" stroke-width="0.75"/>

    <!-- ====== CORRIDOR ====== -->
    <text x="480" y="672" class="zone-detail" style="fill:#BBB; font-size:8px">CORRIDOR</text>

    <!-- ====== DIMENSION LINES ====== -->
    <!-- Top -->
    <line x1="0" y1="-22" x2="1050" y2="-22" class="dim-line"/>
    <line x1="0" y1="-17" x2="0" y2="-27" class="dim-tick"/>
    <line x1="1050" y1="-17" x2="1050" y2="-27" class="dim-tick"/>
    <text x="525" y="-30" class="dim-text">150'-0"</text>
    <!-- Left -->
    <line x1="-22" y1="0" x2="-22" y2="750" class="dim-line"/>
    <line x1="-17" y1="0" x2="-27" y2="0" class="dim-tick"/>
    <line x1="-17" y1="750" x2="-27" y2="750" class="dim-tick"/>
    <text x="-30" y="375" class="dim-text" transform="rotate(-90,-30,375)">107'-0"</text>
    <!-- Bottom outdoor -->
    <line x1="830" y1="960" x2="1050" y2="960" class="dim-line"/>
    <line x1="830" y1="955" x2="830" y2="965" class="dim-tick"/>
    <line x1="1050" y1="955" x2="1050" y2="965" class="dim-tick"/>
    <text x="940" y="975" class="dim-text">31'-0"</text>

    <!-- ====== MEMBER FLOW ARROWS ====== -->
    <!-- Entry → Reception → Training -->
    <path d="M100,-10 L100,25" class="arrow-flow"/>
    <path d="M150,80 L205,80" class="arrow-flow"/>
    <!-- Training → Recovery -->
    <path d="M600,395 L600,610" class="arrow-flow"/>
    <!-- Training → Turf → Outdoor -->
    <path d="M720,200 L840,200 L840,755" class="arrow-flow"/>
    <!-- Reception → Stairs → 2nd Floor -->
    <path d="M195,75 L735,75 L735,135" class="arrow-flow"/>

  </g><!-- END BUILDING GROUP -->

  <!-- ====== LEGEND ====== -->
  <g transform="translate(1160, 130)">
    <text x="0" y="0" font-size="12" font-weight="700" fill="#1A1A1A">LEGEND</text>
    <line x1="0" y1="8" x2="150" y2="8" stroke="#D4A574" stroke-width="1"/>

    <line x1="0" y1="28" x2="25" y2="28" stroke="#1A1A1A" stroke-width="4"/>
    <text x="32" y="32" class="legend-text">Exterior Wall</text>

    <line x1="0" y1="48" x2="25" y2="48" stroke="#1A1A1A" stroke-width="2"/>
    <text x="32" y="52" class="legend-text">Interior Wall</text>

    <line x1="0" y1="68" x2="25" y2="68" class="wall-glass"/>
    <text x="32" y="72" class="legend-text">Glass / Storefront</text>

    <rect x="0" y="80" width="25" height="5" fill="#D4A574" rx="1" opacity="0.5"/>
    <text x="32" y="87" class="legend-text">Door Opening</text>

    <rect x="0" y="98" width="25" height="5" fill="#cc4444" rx="1" opacity="0.4"/>
    <text x="32" y="105" class="legend-text">Emergency Exit</text>

    <line x1="0" y1="118" x2="25" y2="118" class="garage-door"/>
    <text x="32" y="122" class="legend-text">Roll-Up Garage Door</text>

    <line x1="0" y1="140" x2="25" y2="140" class="arrow-flow"/>
    <text x="32" y="144" class="legend-text">Member Circulation</text>

    <!-- Zone Fills -->
    <text x="0" y="172" font-size="9" font-weight="600" fill="#333">ZONE FILLS</text>
    <line x1="0" y1="178" x2="100" y2="178" stroke="#DDD" stroke-width="0.5"/>

    <rect x="0" y="186" width="18" height="10" fill="#D4A574" opacity="0.08" stroke="#DDD" stroke-width="0.5"/>
    <text x="26" y="195" class="legend-text">Training Zones</text>

    <rect x="0" y="202" width="18" height="10" fill="#E8D5B7" opacity="0.15" stroke="#DDD" stroke-width="0.5"/>
    <text x="26" y="211" class="legend-text">Reception / Lockers</text>

    <rect x="0" y="218" width="18" height="10" fill="#87CEEB" opacity="0.1" stroke="#DDD" stroke-width="0.5"/>
    <text x="26" y="227" class="legend-text">Recovery</text>

    <rect x="0" y="234" width="18" height="10" fill="url(#turf-pat)" stroke="#DDD" stroke-width="0.5"/>
    <text x="26" y="243" class="legend-text">Turf / Outdoor</text>

    <rect x="0" y="250" width="18" height="10" fill="#AAA" opacity="0.08" stroke="#DDD" stroke-width="0.5"/>
    <text x="26" y="259" class="legend-text">Mechanical / Service</text>

    <!-- Zone Summary -->
    <text x="0" y="290" font-size="10" font-weight="700" fill="#1A1A1A">ZONE SUMMARY</text>
    <line x1="0" y1="298" x2="175" y2="298" stroke="#D4A574" stroke-width="0.75"/>
    <text x="0" y="314" class="legend-text">Reception ...................... 800 SF</text>
    <text x="0" y="328" class="legend-text">Free Weight Training .... 4,500 SF</text>
    <text x="0" y="342" class="legend-text">Plate-Loaded Machines  2,500 SF</text>
    <text x="0" y="356" class="legend-text">Selectorized &amp; Cables ... 1,000 SF</text>
    <text x="0" y="370" class="legend-text">Cardio Conditioning ...... 1,200 SF</text>
    <text x="0" y="384" class="legend-text">Indoor Turf / Sprint ........ 800 SF</text>
    <text x="0" y="398" class="legend-text">Recovery Suite ............. 1,500 SF</text>
    <text x="0" y="412" class="legend-text">Women's Locker Room .. 1,250 SF</text>
    <text x="0" y="426" class="legend-text">Men's Locker Room ....... 1,250 SF</text>
    <text x="0" y="440" class="legend-text">Restrooms ....................... 400 SF</text>
    <text x="0" y="454" class="legend-text">Mechanical / Storage ...... 600 SF</text>
    <line x1="0" y1="462" x2="175" y2="462" stroke="#D4A574" stroke-width="1"/>
    <text x="0" y="478" class="legend-text" font-weight="700" style="font-size:9px">INDOOR TOTAL ........... 15,800 SF</text>
    <text x="0" y="494" class="legend-text">Outdoor Training ........... 2,500 SF</text>
    <line x1="0" y1="502" x2="175" y2="502" stroke="#D4A574" stroke-width="1.5"/>
    <text x="0" y="518" class="legend-text" font-weight="700" style="font-size:10px; fill:#D4A574">GRAND TOTAL ........... 18,300 SF</text>

    <!-- Notes -->
    <text x="0" y="555" font-size="9" font-weight="600" fill="#333">ARCHITECTURAL NOTES</text>
    <line x1="0" y1="562" x2="120" y2="562" stroke="#DDD" stroke-width="0.5"/>
    <text x="0" y="578" class="legend-text">• 14+ ft ceilings (training floor)</text>
    <text x="0" y="592" class="legend-text">• Exposed steel I-beams</text>
    <text x="0" y="606" class="legend-text">• Copper pendant lighting</text>
    <text x="0" y="620" class="legend-text">• Dark walnut lockers</text>
    <text x="0" y="634" class="legend-text">• Rainfall showerheads</text>
    <text x="0" y="648" class="legend-text">• Heated stone flooring (lockers)</text>
    <text x="0" y="662" class="legend-text">• Roll-up garage door to outdoor</text>
    <text x="0" y="676" class="legend-text">• Powder-coat steel fence (outdoor)</text>
    <text x="0" y="690" class="legend-text">• Glass partition (recovery suite)</text>
    <text x="0" y="704" class="legend-text">• ADA compliant throughout</text>

    <!-- Equipment Brands -->
    <text x="0" y="734" font-size="9" font-weight="600" fill="#333">EQUIPMENT BRANDS</text>
    <line x1="0" y1="741" x2="120" y2="741" stroke="#DDD" stroke-width="0.5"/>
    <text x="0" y="757" class="legend-text">Rogue Fitness  |  Eleiko</text>
    <text x="0" y="771" class="legend-text">Arsenal Strength  |  Prime Fitness</text>
    <text x="0" y="785" class="legend-text">Hammer Strength  |  EliteFTS</text>
    <text x="0" y="799" class="legend-text">Concept2  |  Woodway  |  Normatec</text>
  </g>

  <!-- ====== FOOTER ====== -->
  <line x1="55" y1="1060" x2="1445" y2="1060" stroke="#D4A574" stroke-width="0.5"/>
  <text x="55" y="1078" font-size="8" fill="#AAA" font-family="Inter, sans-serif">THE EREMOS  |  First Floor Plan  |  Liberty Park District, Memphis, TN  |  PRELIMINARY — NOT FOR CONSTRUCTION</text>
  <text x="1445" y="1078" font-size="8" fill="#AAA" font-family="Inter, sans-serif" text-anchor="end">Drawing 02A  |  Rev 02  |  February 2026</text>

</svg>