<?xml version="1.0" encoding="UTF-8"?>
<svg xmlns="http://www.w3.org/2000/svg" viewBox="0 0 1400 1000" width="3000" height="2143">
  <defs>
    <style>
      text { font-family: 'Inter', 'Helvetica Neue', Arial, sans-serif; }
      .wall { fill: none; stroke: #1A1A1A; stroke-width: 3; }
      .interior-wall { fill: none; stroke: #1A1A1A; stroke-width: 2; }
      .door { fill: none; stroke: #D4A574; stroke-width: 2; }
      .window { fill: none; stroke: #87CEEB; stroke-width: 2; stroke-dasharray: 4,2; }
      .zone-label { font-size: 13px; font-weight: 600; fill: #1A1A1A; text-anchor: middle; }
      .zone-sublabel { font-size: 9px; font-weight: 400; fill: #555; text-anchor: middle; }
      .sf-label { font-size: 10px; font-weight: 500; fill: #D4A574; text-anchor: middle; }
      .dim-line { stroke: #999; stroke-width: 0.75; }
      .dim-text { font-size: 8px; fill: #777; text-anchor: middle; }
      .title { font-size: 22px; font-weight: 700; fill: #0A0A0A; }
      .subtitle { font-size: 12px; font-weight: 400; fill: #666; }
      .legend-text { font-size: 9px; fill: #555; }
      .equipment { fill: none; stroke: #888; stroke-width: 1; }
      .equipment-fill { fill: #E8E8E8; stroke: #888; stroke-width: 1; }
    </style>
    <marker id="arrowhead" markerWidth="8" markerHeight="6" refX="8" refY="3" orient="auto">
      <polygon points="0 0, 8 3, 0 6" fill="#D4A574"/>
    </marker>
    <marker id="arrowhead-dark" markerWidth="8" markerHeight="6" refX="8" refY="3" orient="auto">
      <polygon points="0 0, 8 3, 0 6" fill="#999"/>
    </marker>
  </defs>

  <!-- Background -->
  <rect width="1400" height="1000" fill="#F5F0EB"/>

  <!-- Title Block -->
  <text x="50" y="45" class="title">THE EREMOS</text>
  <text x="50" y="65" class="subtitle">SECOND FLOOR PLAN  |  Upper Level  |  7,200 SF Programmed  |  ~8,500 SF Footprint</text>
  <text x="50" y="82" class="subtitle" style="fill:#999">Liberty Park District, Memphis, TN  |  Scale: 1/16" = 1'-0" (approximate)  |  Rev 05  |  February 2026</text>
  <line x1="50" y1="92" x2="1350" y2="92" stroke="#D4A574" stroke-width="1.5"/>

  <!-- ====== BUILDING ====== -->
  <g transform="translate(80, 130)">

    <!-- Exterior Walls: 130' x 65' = 910 x 455 px -->
    <rect x="0" y="0" width="910" height="455" class="wall" stroke-width="4"/>

    <!-- Zone Fills -->
    <!-- TOP ROW -->
    <rect x="2" y="2" width="348" height="218" fill="#3E2418" opacity="0.06"/>
    <rect x="440" y="2" width="248" height="218" fill="#87CEEB" opacity="0.04"/>
    <rect x="690" y="2" width="218" height="83" fill="#E8E8E8" opacity="0.15"/>
    <rect x="690" y="87" width="218" height="68" fill="#DDD" opacity="0.1"/>
    <rect x="690" y="157" width="128" height="63" fill="#AAA" opacity="0.08"/>
    <!-- BOTTOM ROW -->
    <rect x="2" y="222" width="348" height="188" fill="#E8D5B7" opacity="0.08"/>
    <rect x="352" y="222" width="238" height="188" fill="#D4A574" opacity="0.06"/>
    <rect x="592" y="222" width="316" height="188" fill="#A89888" opacity="0.06"/>
    <!-- GALLERY -->
    <rect x="352" y="412" width="556" height="41" fill="none" stroke="#1A1A1A" stroke-width="2" stroke-dasharray="6,3"/>

    <!-- Interior Walls -->
    <!-- Top/Bottom row divider -->
    <line x1="0" y1="220" x2="910" y2="220" class="interior-wall"/>
    <!-- Cafe right wall -->
    <line x1="350" y1="0" x2="350" y2="220" class="interior-wall"/>
    <!-- Coworking left wall -->
    <line x1="440" y1="0" x2="440" y2="220" class="interior-wall"/>
    <!-- Support column left wall -->
    <line x1="690" y1="0" x2="690" y2="220" class="interior-wall"/>
    <!-- Restrooms / Staff divider -->
    <line x1="690" y1="85" x2="908" y2="85" class="interior-wall"/>
    <!-- Staff / Mech divider -->
    <line x1="690" y1="155" x2="818" y2="155" class="interior-wall"/>
    <!-- Bottom row dividers -->
    <line x1="350" y1="220" x2="350" y2="410" class="interior-wall"/>
    <line x1="590" y1="220" x2="590" y2="410" class="interior-wall"/>
    <!-- Gallery top edge -->
    <line x1="350" y1="410" x2="908" y2="410" class="interior-wall" stroke-dasharray="6,3" stroke="#AAA"/>

    <!-- Windows along north exterior -->
    <line x1="30" y1="0" x2="180" y2="0" stroke="#87CEEB" stroke-width="3" opacity="0.5"/>
    <line x1="200" y1="0" x2="340" y2="0" stroke="#87CEEB" stroke-width="3" opacity="0.5"/>
    <line x1="450" y1="0" x2="680" y2="0" stroke="#87CEEB" stroke-width="3" opacity="0.5"/>
    <line x1="700" y1="0" x2="900" y2="0" stroke="#87CEEB" stroke-width="3" opacity="0.5"/>
    <!-- Glass wall coworking -->
    <line x1="440" y1="10" x2="440" y2="210" stroke="#87CEEB" stroke-width="3" opacity="0.5"/>

    <!-- ====== STAIRCASE + ELEVATOR ====== -->
    <g transform="translate(355, 5)">
      <rect x="0" y="0" width="75" height="75" fill="#E8D5B7" opacity="0.25" stroke="#1A1A1A" stroke-width="2"/>
      <line x1="8" y1="10" x2="65" y2="10" stroke="#888" stroke-width="0.5"/>
      <line x1="8" y1="20" x2="65" y2="20" stroke="#888" stroke-width="0.5"/>
      <line x1="8" y1="30" x2="65" y2="30" stroke="#888" stroke-width="0.5"/>
      <line x1="8" y1="40" x2="65" y2="40" stroke="#888" stroke-width="0.5"/>
      <line x1="8" y1="50" x2="65" y2="50" stroke="#888" stroke-width="0.5"/>
      <line x1="8" y1="60" x2="65" y2="60" stroke="#888" stroke-width="0.5"/>
      <text x="37" y="45" font-size="7" fill="#888" text-anchor="middle">OPEN STAIR</text>
      <text x="37" y="55" font-size="5" fill="#888" text-anchor="middle">FROM 1ST FL</text>
    </g>
    <!-- Elevator -->
    <g transform="translate(355, 88)">
      <rect x="0" y="0" width="48" height="48" fill="#DDD" opacity="0.3" stroke="#1A1A1A" stroke-width="2"/>
      <text x="24" y="27" font-size="7" fill="#888" text-anchor="middle">ELEV.</text>
      <line x1="14" y1="35" x2="24" y2="42" stroke="#888" stroke-width="1"/>
      <line x1="24" y1="42" x2="34" y2="42" stroke="#888" stroke-width="1"/>
    </g>

    <!-- ====== CAFE + BAR (1,600 SF) ====== -->
    <!-- Zone: x=0, y=0, w=350, h=220 → 350*220/49 = 1,571 SF -->
    <text x="175" y="28" class="zone-label" font-size="15">CAFE &amp; BAR</text>
    <text x="175" y="46" class="sf-label" font-size="11">1,600 SF</text>
    <!-- Service Counter / Bar -->
    <rect x="25" y="60" width="300" height="16" fill="#3E2418" opacity="0.3" stroke="#3E2418" stroke-width="1" rx="3"/>
    <text x="175" y="72" font-size="7" fill="#E8D5B7" text-anchor="middle" font-weight="500">SERVICE COUNTER / BAR</text>
    <!-- Counter Stools -->
    <g transform="translate(30, 50)">
      <circle cx="10" cy="0" r="4" fill="#3E2418" opacity="0.15" stroke="#888" stroke-width="0.5"/>
      <circle cx="35" cy="0" r="4" fill="#3E2418" opacity="0.15" stroke="#888" stroke-width="0.5"/>
      <circle cx="60" cy="0" r="4" fill="#3E2418" opacity="0.15" stroke="#888" stroke-width="0.5"/>
      <circle cx="85" cy="0" r="4" fill="#3E2418" opacity="0.15" stroke="#888" stroke-width="0.5"/>
      <circle cx="110" cy="0" r="4" fill="#3E2418" opacity="0.15" stroke="#888" stroke-width="0.5"/>
      <circle cx="140" cy="0" r="4" fill="#3E2418" opacity="0.15" stroke="#888" stroke-width="0.5"/>
      <circle cx="170" cy="0" r="4" fill="#3E2418" opacity="0.15" stroke="#888" stroke-width="0.5"/>
      <circle cx="200" cy="0" r="4" fill="#3E2418" opacity="0.15" stroke="#888" stroke-width="0.5"/>
    </g>
    <text x="130" y="46" font-size="5" fill="#888" text-anchor="middle">COUNTER STOOLS (8)</text>
    <!-- Commercial Kitchen -->
    <rect x="25" y="82" width="130" height="65" fill="#DDD" opacity="0.15" stroke="#888" stroke-width="1.5" rx="2"/>
    <text x="90" y="112" font-size="8" fill="#888" text-anchor="middle">COMMERCIAL</text>
    <text x="90" y="124" font-size="8" fill="#888" text-anchor="middle">KITCHEN</text>
    <rect x="70" y="78" width="45" height="7" fill="#D4A574" opacity="0.3" rx="1"/>
    <text x="92" y="84" font-size="5" fill="#D4A574" text-anchor="middle">PASS-THROUGH</text>
    <!-- Coffee + Smoothie Bar -->
    <rect x="170" y="82" width="60" height="22" fill="#3E2418" opacity="0.12" stroke="#888" stroke-width="0.75" rx="2"/>
    <text x="200" y="93" font-size="5.5" fill="#888" text-anchor="middle">COFFEE BAR +</text>
    <text x="200" y="101" font-size="5" fill="#D4A574" text-anchor="middle">SUPPLEMENT SMOOTHIES</text>
    <!-- Back Bar -->
    <rect x="170" y="110" width="140" height="40" fill="#3E2418" opacity="0.08" stroke="#888" stroke-width="1" rx="2"/>
    <text x="240" y="130" font-size="7" fill="#888" text-anchor="middle">BACK BAR</text>
    <text x="240" y="142" font-size="5" fill="#888" text-anchor="middle">Beer Taps / Wine / Cocktails</text>
    <!-- Dumbwaiter -->
    <rect x="25" y="155" width="35" height="25" fill="#DDD" opacity="0.2" stroke="#888" stroke-width="0.75" rx="2"/>
    <text x="42" y="170" font-size="4.5" fill="#888" text-anchor="middle">DUMBWAITER</text>
    <text x="42" y="178" font-size="4" fill="#888" text-anchor="middle">TO 1ST FL</text>
    <!-- 2-top tables -->
    <g transform="translate(25, 185)">
      <rect x="0" y="0" width="25" height="25" fill="#3E2418" opacity="0.1" stroke="#888" stroke-width="0.5" rx="2"/>
      <circle cx="5" cy="12" r="3" fill="#888" opacity="0.2"/>
      <circle cx="20" cy="12" r="3" fill="#888" opacity="0.2"/>
      <rect x="38" y="0" width="25" height="25" fill="#3E2418" opacity="0.1" stroke="#888" stroke-width="0.5" rx="2"/>
      <circle cx="43" cy="12" r="3" fill="#888" opacity="0.2"/>
      <circle cx="58" cy="12" r="3" fill="#888" opacity="0.2"/>
      <rect x="76" y="0" width="25" height="25" fill="#3E2418" opacity="0.1" stroke="#888" stroke-width="0.5" rx="2"/>
      <circle cx="81" cy="12" r="3" fill="#888" opacity="0.2"/>
      <circle cx="96" cy="12" r="3" fill="#888" opacity="0.2"/>
    </g>
    <text x="76" y="214" font-size="5" fill="#888" text-anchor="middle">2-TOP TABLES (3)</text>
    <!-- Communal Table -->
    <g transform="translate(135, 163)">
      <rect x="0" y="0" width="170" height="38" fill="#5A3E28" opacity="0.12" stroke="#3E2418" stroke-width="1" rx="3"/>
      <text x="85" y="18" font-size="7" fill="#3E2418" text-anchor="middle">COMMUNAL TABLE</text>
      <text x="85" y="30" font-size="5" fill="#888" text-anchor="middle">Live-Edge Timber, Seats 8-10</text>
      <circle cx="-5" cy="10" r="3" fill="#888" opacity="0.2"/>
      <circle cx="-5" cy="28" r="3" fill="#888" opacity="0.2"/>
      <circle cx="175" cy="10" r="3" fill="#888" opacity="0.2"/>
      <circle cx="175" cy="28" r="3" fill="#888" opacity="0.2"/>
      <circle cx="40" cy="-5" r="3" fill="#888" opacity="0.2"/>
      <circle cx="85" cy="-5" r="3" fill="#888" opacity="0.2"/>
      <circle cx="130" cy="-5" r="3" fill="#888" opacity="0.2"/>
    </g>

    <!-- ====== COWORKING WORKSPACE (1,200 SF) ====== -->
    <!-- Zone: x=440, y=0, w=250, h=220 → 250*220/49 = 1,122 SF -->
    <text x="565" y="28" class="zone-label" font-size="15">COWORKING WORKSPACE</text>
    <text x="565" y="46" class="sf-label" font-size="11">1,200 SF</text>
    <text x="565" y="60" class="zone-sublabel">Quiet Zone — Acoustically Separated</text>
    <!-- Hot Desks -->
    <g transform="translate(455, 75)">
      <text x="70" y="-8" font-size="7" fill="#888" text-anchor="middle">HOT DESKS (6)</text>
      <rect x="0" y="0" width="38" height="18" fill="#E8E8E8" stroke="#888" stroke-width="0.5" rx="1"/>
      <rect x="0" y="3" width="14" height="2" fill="#1A1A1A" opacity="0.3" transform="translate(12,0)"/>
      <rect x="48" y="0" width="38" height="18" fill="#E8E8E8" stroke="#888" stroke-width="0.5" rx="1"/>
      <rect x="48" y="3" width="14" height="2" fill="#1A1A1A" opacity="0.3" transform="translate(12,0)"/>
      <rect x="96" y="0" width="38" height="18" fill="#E8E8E8" stroke="#888" stroke-width="0.5" rx="1"/>
      <rect x="96" y="3" width="14" height="2" fill="#1A1A1A" opacity="0.3" transform="translate(12,0)"/>
      <circle cx="19" cy="26" r="5" fill="#888" opacity="0.1" stroke="#888" stroke-width="0.5"/>
      <circle cx="67" cy="26" r="5" fill="#888" opacity="0.1" stroke="#888" stroke-width="0.5"/>
      <circle cx="115" cy="26" r="5" fill="#888" opacity="0.1" stroke="#888" stroke-width="0.5"/>
      <!-- Row 2 -->
      <rect x="0" y="45" width="38" height="18" fill="#E8E8E8" stroke="#888" stroke-width="0.5" rx="1"/>
      <rect x="48" y="45" width="38" height="18" fill="#E8E8E8" stroke="#888" stroke-width="0.5" rx="1"/>
      <rect x="96" y="45" width="38" height="18" fill="#E8E8E8" stroke="#888" stroke-width="0.5" rx="1"/>
      <circle cx="19" cy="38" r="5" fill="#888" opacity="0.1" stroke="#888" stroke-width="0.5"/>
      <circle cx="67" cy="38" r="5" fill="#888" opacity="0.1" stroke="#888" stroke-width="0.5"/>
      <circle cx="115" cy="38" r="5" fill="#888" opacity="0.1" stroke="#888" stroke-width="0.5"/>
    </g>
    <!-- Meeting Rooms -->
    <g transform="translate(600, 75)">
      <rect x="0" y="0" width="65" height="48" fill="#87CEEB" opacity="0.06" stroke="#888" stroke-width="1.5" rx="2"/>
      <line x1="0" y1="0" x2="0" y2="48" stroke="#87CEEB" stroke-width="2" opacity="0.5"/>
      <text x="32" y="20" font-size="6" fill="#888" text-anchor="middle">MEETING RM 1</text>
      <text x="32" y="32" font-size="5" fill="#888" text-anchor="middle">4-Person Glass</text>
      <rect x="0" y="60" width="65" height="48" fill="#87CEEB" opacity="0.06" stroke="#888" stroke-width="1.5" rx="2"/>
      <line x1="0" y1="60" x2="0" y2="108" stroke="#87CEEB" stroke-width="2" opacity="0.5"/>
      <text x="32" y="82" font-size="6" fill="#888" text-anchor="middle">MEETING RM 2</text>
      <text x="32" y="94" font-size="5" fill="#888" text-anchor="middle">4-Person Glass</text>
    </g>
    <!-- Print Station -->
    <g transform="translate(600, 195)">
      <rect x="0" y="0" width="65" height="18" fill="#DDD" opacity="0.2" stroke="#888" stroke-width="0.5" rx="2"/>
      <text x="32" y="12" font-size="5" fill="#888" text-anchor="middle">PRINT / SCAN</text>
    </g>
    <text x="565" y="210" font-size="6" fill="#888" text-anchor="middle" font-style="italic">Acoustic Panels on Walls &amp; Ceiling</text>

    <!-- ====== RESTROOMS (400 SF) ====== -->
    <!-- Zone: x=690, y=0, w=220, h=85 → 220*85/49 = 382 SF -->
    <text x="800" y="35" class="zone-label" font-size="10">RESTROOMS</text>
    <text x="800" y="50" class="sf-label" font-size="8">400 SF</text>
    <text x="800" y="63" class="zone-sublabel" font-size="6">ADA COMPLIANT</text>

    <!-- ====== STAFF OFFICE / OPERATIONS (300 SF) ====== -->
    <!-- Zone: x=690, y=85, w=220, h=70 → 220*70/49 = 314 SF -->
    <text x="800" y="115" class="zone-label" font-size="10">STAFF OFFICE / OPERATIONS</text>
    <text x="800" y="130" class="sf-label" font-size="8">300 SF</text>
    <rect x="710" y="136" width="38" height="14" fill="#E8E8E8" stroke="#888" stroke-width="0.5" rx="1"/>
    <text x="729" y="146" font-size="5" fill="#888" text-anchor="middle">GM DESK</text>
    <rect x="760" y="136" width="45" height="14" fill="#E8D5B7" opacity="0.1" stroke="#888" stroke-width="0.5" rx="1"/>
    <text x="782" y="146" font-size="5" fill="#888" text-anchor="middle">BREAK AREA</text>

    <!-- ====== MECHANICAL / UTILITY (200 SF) ====== -->
    <!-- Zone: x=690, y=155, w=128, h=65 → 128*65/49 = 170 SF -->
    <text x="754" y="180" class="zone-label" font-size="8">MECH / UTILITY</text>
    <text x="754" y="193" class="sf-label" font-size="7">200 SF</text>
    <text x="754" y="206" font-size="5" fill="#888" text-anchor="middle">Kitchen exhaust / HVAC</text>

    <!-- ====== SOCIAL LOUNGE (1,400 SF) ====== -->
    <!-- Zone: x=0, y=220, w=350, h=190 → 350*190/49 = 1,357 SF -->
    <text x="175" y="248" class="zone-label" font-size="15">SOCIAL LOUNGE</text>
    <text x="175" y="266" class="sf-label" font-size="11">1,400 SF</text>
    <text x="175" y="281" class="zone-sublabel">Event Space / Bar Lounge (Post-4PM)</text>
    <!-- Fireplace -->
    <g transform="translate(15, 295)">
      <rect x="0" y="0" width="80" height="14" fill="#1A1A1A" opacity="0.15" stroke="#1A1A1A" stroke-width="1.5" rx="2"/>
      <rect x="8" y="2" width="64" height="10" fill="#E8A040" opacity="0.15" rx="1"/>
      <text x="40" y="10" font-size="5.5" fill="#D4A574" text-anchor="middle">LINEAR FIREPLACE</text>
    </g>
    <!-- Club Chairs -->
    <g transform="translate(25, 318)">
      <rect x="0" y="0" width="28" height="28" fill="#3E2418" opacity="0.15" stroke="#888" stroke-width="0.5" rx="5"/>
      <rect x="40" y="0" width="28" height="28" fill="#3E2418" opacity="0.15" stroke="#888" stroke-width="0.5" rx="5"/>
      <rect x="0" y="38" width="28" height="28" fill="#3E2418" opacity="0.15" stroke="#888" stroke-width="0.5" rx="5"/>
      <rect x="40" y="38" width="28" height="28" fill="#3E2418" opacity="0.15" stroke="#888" stroke-width="0.5" rx="5"/>
      <rect x="8" y="28" width="50" height="10" fill="#5A3E28" opacity="0.12" stroke="#888" stroke-width="0.5" rx="2"/>
    </g>
    <text x="58" y="398" font-size="5" fill="#888" text-anchor="middle">LEATHER CLUB CHAIRS</text>
    <!-- Sofas -->
    <g transform="translate(120, 315)">
      <rect x="0" y="0" width="70" height="25" fill="#3E2418" opacity="0.12" stroke="#888" stroke-width="0.75" rx="4"/>
      <text x="35" y="16" font-size="6" fill="#888" text-anchor="middle">SOFA</text>
      <rect x="0" y="38" width="70" height="25" fill="#3E2418" opacity="0.12" stroke="#888" stroke-width="0.75" rx="4"/>
      <text x="35" y="54" font-size="6" fill="#888" text-anchor="middle">SOFA</text>
      <rect x="12" y="26" width="45" height="12" fill="#5A3E28" opacity="0.1" stroke="#888" stroke-width="0.5" rx="2"/>
    </g>
    <!-- Digital Screens -->
    <g transform="translate(220, 310)">
      <rect x="0" y="0" width="65" height="40" fill="#1A1A1A" opacity="0.1" stroke="#888" stroke-width="1" rx="2"/>
      <text x="32" y="17" font-size="6" fill="#888" text-anchor="middle">DIGITAL SCREENS</text>
      <text x="32" y="29" font-size="5" fill="#888" text-anchor="middle">League / Events</text>
    </g>
    <!-- Event Space overlay -->
    <g transform="translate(80, 360)">
      <rect x="0" y="0" width="190" height="38" fill="none" stroke="#D4A574" stroke-width="1" stroke-dasharray="6,3" rx="4"/>
      <text x="95" y="15" font-size="7" fill="#D4A574" text-anchor="middle" font-weight="500">FLEXIBLE EVENT SPACE</text>
      <text x="95" y="28" font-size="5.5" fill="#D4A574" text-anchor="middle">Milestone Nights  |  Post-4PM Bar Lounge</text>
    </g>

    <!-- ====== YOGA / MOBILITY STUDIO (900 SF) — RENAMED ====== -->
    <!-- Zone: x=350, y=220, w=240, h=190 → 240*190/49 = 931 SF -->
    <text x="470" y="255" class="zone-label" font-size="14">YOGA / MOBILITY</text>
    <text x="470" y="273" class="zone-label" font-size="11">STUDIO</text>
    <text x="470" y="291" class="sf-label" font-size="10">900 SF</text>
    <text x="470" y="305" class="zone-sublabel">Yoga / Mobility / Stretch  |  Small Group (8-12)</text>
    <text x="470" y="318" class="zone-sublabel" style="fill:#D4A574; font-size:7px">Light implements only — heavy work on Ground Floor</text>
    <!-- Mirror wall -->
    <line x1="355" y1="230" x2="355" y2="400" stroke="#87CEEB" stroke-width="2" opacity="0.6"/>
    <text x="360" y="340" font-size="5" fill="#87CEEB" transform="rotate(-90,360,340)">MIRROR WALL</text>
    <!-- Resistance Band Rack (replaces kettlebells) -->
    <rect x="375" y="330" width="70" height="12" fill="#E8E8E8" stroke="#888" stroke-width="0.5" rx="2"/>
    <text x="410" y="339" font-size="5" fill="#888" text-anchor="middle">BAND / YOGA PROP RACK</text>
    <!-- TRX Anchors -->
    <g transform="translate(380, 350)">
      <circle cx="0" cy="0" r="3" fill="#888" opacity="0.2" stroke="#888" stroke-width="0.5"/>
      <circle cx="18" cy="0" r="3" fill="#888" opacity="0.2" stroke="#888" stroke-width="0.5"/>
      <circle cx="36" cy="0" r="3" fill="#888" opacity="0.2" stroke="#888" stroke-width="0.5"/>
      <circle cx="54" cy="0" r="3" fill="#888" opacity="0.2" stroke="#888" stroke-width="0.5"/>
      <circle cx="72" cy="0" r="3" fill="#888" opacity="0.2" stroke="#888" stroke-width="0.5"/>
      <circle cx="90" cy="0" r="3" fill="#888" opacity="0.2" stroke="#888" stroke-width="0.5"/>
      <text x="45" y="15" font-size="5" fill="#888" text-anchor="middle">TRX ANCHORS (6)</text>
    </g>
    <!-- Mat area -->
    <rect x="375" y="375" width="195" height="28" fill="#D4A574" opacity="0.04" stroke="#AAA" stroke-width="0.5" rx="2"/>
    <text x="472" y="393" font-size="6" fill="#888" text-anchor="middle">OPEN MAT AREA</text>
    <text x="470" y="406" font-size="5" fill="#888" text-anchor="middle" font-style="italic">Cork Floor  |  Sound System  |  Full Mirrors</text>

    <!-- ====== WELLNESS PROFESSIONAL SUITES (1,200 SF) ====== -->
    <!-- Zone: x=590, y=220, w=320, h=190 → 320*190/49 = 1,241 SF -->
    <text x="750" y="248" class="zone-label" font-size="13">WELLNESS</text>
    <text x="750" y="265" class="zone-label" font-size="10">PROFESSIONAL SUITES</text>
    <text x="750" y="280" class="sf-label">1,200 SF</text>
    <!-- Waiting Area -->
    <g transform="translate(610, 293)">
      <rect x="0" y="0" width="80" height="30" fill="#E8D5B7" opacity="0.1" stroke="#888" stroke-width="0.5" rx="2"/>
      <text x="40" y="14" font-size="6" fill="#888" text-anchor="middle">WAITING AREA</text>
      <text x="40" y="24" font-size="5" fill="#888" text-anchor="middle">4-6 Chairs</text>
    </g>
    <!-- Treatment Room 1 -->
    <g transform="translate(610, 330)">
      <rect x="0" y="0" width="100" height="48" fill="#A89888" opacity="0.08" stroke="#888" stroke-width="1" rx="2"/>
      <text x="50" y="18" font-size="7" fill="#888" text-anchor="middle">TREATMENT RM 1</text>
      <text x="50" y="30" font-size="5" fill="#D4A574" text-anchor="middle">Licensed Massage</text>
      <rect x="22" y="34" width="50" height="9" fill="#E8D5B7" opacity="0.15" stroke="#888" stroke-width="0.5" rx="3"/>
    </g>
    <!-- Treatment Room 2 -->
    <g transform="translate(720, 330)">
      <rect x="0" y="0" width="100" height="48" fill="#A89888" opacity="0.08" stroke="#888" stroke-width="1" rx="2"/>
      <text x="50" y="18" font-size="7" fill="#888" text-anchor="middle">TREATMENT RM 2</text>
      <text x="50" y="30" font-size="5" fill="#D4A574" text-anchor="middle">Sports Chiropractic</text>
      <rect x="22" y="34" width="50" height="9" fill="#E8D5B7" opacity="0.15" stroke="#888" stroke-width="0.5" rx="3"/>
    </g>
    <!-- Treatment Room 3 -->
    <g transform="translate(830, 330)">
      <rect x="0" y="0" width="68" height="48" fill="#A89888" opacity="0.08" stroke="#888" stroke-width="1" rx="2"/>
      <text x="34" y="18" font-size="6" fill="#888" text-anchor="middle">TREATMENT</text>
      <text x="34" y="28" font-size="6" fill="#888" text-anchor="middle">RM 3</text>
      <text x="34" y="40" font-size="5" fill="#D4A574" text-anchor="middle">Nutrition</text>
    </g>
    <!-- Shared Storage -->
    <g transform="translate(610, 384)">
      <rect x="0" y="0" width="140" height="22" fill="#A89888" opacity="0.04" stroke="#888" stroke-width="0.75" rx="2"/>
      <text x="70" y="14" font-size="6" fill="#888" text-anchor="middle">SHARED SUPPLIES / STORAGE</text>
    </g>

    <!-- ====== GALLERY OVERLOOK ====== -->
    <!-- x=350, y=410, w=560, h=45 → 560*45/49 = 514 SF -->
    <text x="630" y="432" font-size="9" fill="#888" text-anchor="middle" font-weight="600">OPEN TO BELOW — GALLERY OVERLOOK  (~500 SF)</text>
    <text x="630" y="446" font-size="6" fill="#888" text-anchor="middle">Double-height view to Training Floor  |  Gallery railing with seating  |  14+ ft ceilings below</text>

    <!-- ====== CIRCULATION ARROWS ====== -->
    <line x1="390" y1="85" x2="300" y2="140" stroke="#D4A574" stroke-width="1.5" stroke-dasharray="6,3" marker-end="url(#arrowhead)"/>
    <line x1="175" y1="218" x2="175" y2="230" stroke="#D4A574" stroke-width="1.5" stroke-dasharray="6,3" marker-end="url(#arrowhead)"/>
    <line x1="400" y1="150" x2="450" y2="120" stroke="#D4A574" stroke-width="1.5" stroke-dasharray="6,3" marker-end="url(#arrowhead)"/>
    <line x1="470" y1="218" x2="470" y2="230" stroke="#D4A574" stroke-width="1.5" stroke-dasharray="6,3" marker-end="url(#arrowhead)"/>
    <line x1="580" y1="300" x2="600" y2="300" stroke="#D4A574" stroke-width="1.5" stroke-dasharray="6,3" marker-end="url(#arrowhead)"/>

    <!-- ====== DOORS ====== -->
    <rect x="352" y="250" width="4" height="22" fill="#D4A574" rx="1"/>
    <rect x="588" y="280" width="4" height="22" fill="#D4A574" rx="1"/>
    <rect x="720" y="220" width="22" height="4" fill="#D4A574" rx="1"/>
    <rect x="720" y="85" width="22" height="4" fill="#D4A574" rx="1"/>

    <!-- ====== EMERGENCY EXITS ====== -->
    <g transform="translate(-8, 310)">
      <rect x="0" y="0" width="12" height="28" fill="#CC3333" opacity="0.3" stroke="#CC3333" stroke-width="1.5" rx="1"/>
      <text x="6" y="17" font-size="5" fill="#CC3333" text-anchor="middle" font-weight="bold">EXIT</text>
    </g>
    <g transform="translate(906, 300)">
      <rect x="0" y="0" width="12" height="28" fill="#CC3333" opacity="0.3" stroke="#CC3333" stroke-width="1.5" rx="1"/>
      <text x="6" y="17" font-size="5" fill="#CC3333" text-anchor="middle" font-weight="bold">EXIT</text>
    </g>

    <!-- ====== DIMENSION LINES ====== -->
    <line x1="0" y1="-35" x2="910" y2="-35" class="dim-line" marker-end="url(#arrowhead-dark)"/>
    <line x1="910" y1="-35" x2="0" y2="-35" class="dim-line" marker-end="url(#arrowhead-dark)"/>
    <text x="455" y="-40" class="dim-text">130'-0"</text>
    <line x1="0" y1="-30" x2="0" y2="-40" class="dim-line"/>
    <line x1="910" y1="-30" x2="910" y2="-40" class="dim-line"/>
    <line x1="-35" y1="0" x2="-35" y2="455" class="dim-line" marker-end="url(#arrowhead-dark)"/>
    <line x1="-35" y1="455" x2="-35" y2="0" class="dim-line" marker-end="url(#arrowhead-dark)"/>
    <text x="-40" y="227" class="dim-text" transform="rotate(-90, -40, 227)">65'-0"</text>
    <line x1="-30" y1="0" x2="-40" y2="0" class="dim-line"/>
    <line x1="-30" y1="455" x2="-40" y2="455" class="dim-line"/>

  </g>

  <!-- ====== LEGEND ====== -->
  <g transform="translate(1050, 130)">
    <text x="0" y="0" font-size="12" font-weight="600" fill="#1A1A1A">LEGEND</text>
    <line x1="0" y1="8" x2="120" y2="8" stroke="#D4A574" stroke-width="1"/>

    <line x1="0" y1="25" x2="25" y2="25" stroke="#1A1A1A" stroke-width="3"/>
    <text x="32" y="28" class="legend-text">Exterior Wall</text>
    <line x1="0" y1="45" x2="25" y2="45" stroke="#1A1A1A" stroke-width="2"/>
    <text x="32" y="48" class="legend-text">Interior Wall</text>
    <line x1="0" y1="65" x2="25" y2="65" stroke="#87CEEB" stroke-width="3" opacity="0.6"/>
    <text x="32" y="68" class="legend-text">Glass Wall / Window</text>
    <rect x="0" y="78" width="25" height="6" fill="#D4A574" rx="1"/>
    <text x="32" y="85" class="legend-text">Door Opening</text>
    <rect x="0" y="95" width="15" height="10" fill="#CC3333" opacity="0.3" stroke="#CC3333" stroke-width="1"/>
    <text x="32" y="104" class="legend-text">Emergency Exit</text>
    <rect x="0" y="115" width="25" height="10" fill="#3E2418" opacity="0.1" stroke="#3E2418" stroke-width="1"/>
    <text x="32" y="124" class="legend-text">Cafe / Bar Zone</text>
    <rect x="0" y="135" width="25" height="10" fill="#E8D5B7" opacity="0.15" stroke="#E8D5B7" stroke-width="1"/>
    <text x="32" y="144" class="legend-text">Social / Lounge</text>
    <rect x="0" y="155" width="25" height="10" fill="#87CEEB" opacity="0.1" stroke="#87CEEB" stroke-width="1"/>
    <text x="32" y="164" class="legend-text">Coworking / Work</text>
    <rect x="0" y="175" width="25" height="10" fill="#A89888" opacity="0.15" stroke="#A89888" stroke-width="1"/>
    <text x="32" y="184" class="legend-text">Wellness / Spa</text>
    <rect x="0" y="195" width="25" height="10" fill="#D4A574" opacity="0.08" stroke="#D4A574" stroke-width="1"/>
    <text x="32" y="204" class="legend-text">Yoga / Mobility Studio</text>
    <rect x="0" y="215" width="25" height="10" fill="#AAA" opacity="0.1" stroke="#AAA" stroke-width="1"/>
    <text x="32" y="224" class="legend-text">Mechanical / Utility</text>
    <line x1="0" y1="238" x2="25" y2="238" stroke="#D4A574" stroke-width="1.5" stroke-dasharray="6,3" marker-end="url(#arrowhead)"/>
    <text x="32" y="241" class="legend-text">Member Circulation</text>

    <!-- Zone Summary -->
    <text x="0" y="270" font-size="9" fill="#1A1A1A" font-weight="600">ZONE SUMMARY</text>
    <text x="0" y="285" class="legend-text">Cafe &amp; Bar ............... 1,600 SF</text>
    <text x="0" y="298" class="legend-text">Social Lounge ........... 1,400 SF</text>
    <text x="0" y="311" class="legend-text">Coworking ................ 1,200 SF</text>
    <text x="0" y="324" class="legend-text">Wellness Suites ........ 1,200 SF</text>
    <text x="0" y="337" class="legend-text">Yoga / Mobility ............ 900 SF</text>
    <text x="0" y="350" class="legend-text">Restrooms .................. 400 SF</text>
    <text x="0" y="363" class="legend-text">Staff Office ................. 300 SF</text>
    <text x="0" y="376" class="legend-text">Mechanical / Utility ..... 200 SF</text>
    <line x1="0" y1="383" x2="180" y2="383" stroke="#D4A574" stroke-width="0.5"/>
    <text x="0" y="396" class="legend-text" font-weight="600">PROGRAMMED ........ 7,200 SF</text>
    <text x="0" y="410" class="legend-text">Gallery Overlook ......... ~500 SF</text>
    <text x="0" y="423" class="legend-text">Circulation ................... ~800 SF</text>
    <line x1="0" y1="430" x2="180" y2="430" stroke="#D4A574" stroke-width="1"/>
    <text x="0" y="443" class="legend-text" font-weight="600">FOOTPRINT ............ ~8,500 SF</text>

    <!-- Floor Flow -->
    <text x="0" y="475" font-size="9" fill="#1A1A1A" font-weight="600">SECOND FLOOR FLOW</text>
    <text x="0" y="490" class="legend-text" fill="#D4A574">1. Arrive via stair/elevator</text>
    <text x="0" y="503" class="legend-text" fill="#D4A574">   (adjacent to reception, no gym crossing)</text>
    <text x="0" y="518" class="legend-text" fill="#D4A574">2. Cafe → Order / Eat / Coffee</text>
    <text x="0" y="533" class="legend-text" fill="#D4A574">3. Cowork → Remote Work</text>
    <text x="0" y="548" class="legend-text" fill="#D4A574">4. Lounge → Socialize / Events</text>
    <text x="0" y="563" class="legend-text" fill="#D4A574">5. Wellness → Treatment</text>
    <text x="0" y="578" class="legend-text" fill="#D4A574">6. Studio → Yoga / Mobility (8-12 ppl)</text>
    <text x="0" y="593" class="legend-text" fill="#D4A574">7. Gallery → Overlook training floor</text>

    <!-- Notes -->
    <text x="0" y="625" font-size="9" fill="#1A1A1A" font-weight="600">KEY DESIGN NOTES</text>
    <text x="0" y="640" class="legend-text">• 2nd floor above front portion only</text>
    <text x="0" y="653" class="legend-text">• Training floor below has 14+ ft ceilings</text>
    <text x="0" y="666" class="legend-text">• Dedicated mechanical for kitchen exhaust</text>
    <text x="0" y="679" class="legend-text">• Dumbwaiter for food/supply delivery</text>
    <text x="0" y="692" class="legend-text">• Kettlebells moved to Ground Floor</text>
    <text x="0" y="705" class="legend-text">• Studio: yoga/mobility/stretch only</text>
    <text x="0" y="718" class="legend-text">• Cafe serves supplement smoothies</text>
  </g>

  <!-- North Arrow -->
  <g transform="translate(1100, 530)">
    <circle cx="20" cy="20" r="18" fill="none" stroke="#1A1A1A" stroke-width="1.5"/>
    <polygon points="20,5 15,25 20,20 25,25" fill="#1A1A1A"/>
    <text x="20" y="15" font-size="9" font-weight="700" fill="#1A1A1A" text-anchor="middle">N</text>
  </g>

  <!-- Scale Bar -->
  <g transform="translate(1050, 590)">
    <text x="0" y="0" font-size="9" fill="#1A1A1A" font-weight="600">SCALE</text>
    <rect x="0" y="8" width="60" height="6" fill="#1A1A1A"/>
    <rect x="60" y="8" width="60" height="6" fill="none" stroke="#1A1A1A" stroke-width="1"/>
    <rect x="120" y="8" width="60" height="6" fill="#1A1A1A"/>
    <text x="0" y="25" font-size="7" fill="#888">0</text>
    <text x="60" y="25" font-size="7" fill="#888">10'</text>
    <text x="120" y="25" font-size="7" fill="#888">20'</text>
    <text x="180" y="25" font-size="7" fill="#888">30'</text>
  </g>

  <!-- Footer -->
  <line x1="50" y1="960" x2="1350" y2="960" stroke="#D4A574" stroke-width="0.5"/>
  <text x="50" y="978" font-size="8" fill="#999" font-family="Inter, sans-serif">THE EREMOS  |  Second Floor Plan  |  Liberty Park District, Memphis, TN  |  PRELIMINARY - NOT FOR CONSTRUCTION</text>
  <text x="1350" y="978" font-size="8" fill="#999" font-family="Inter, sans-serif" text-anchor="end">Drawing 02B  |  Rev 05  |  February 2026</text>

</svg>
